<?xml version="1.0" encoding="UTF-8"?>
<svg id="Layer_2" data-name="Layer 2" xmlns="http://www.w3.org/2000/svg" version="1.1" viewBox="0 0 220 150">
  <defs>
    <style>
      .cls-1 {
        fill: #4a90ce;
        fill-rule: evenodd;
        stroke-width: 0px;
      }
    </style>
  </defs>
  <path class="cls-1" d="M148.54,123.42c0,2.05,1.66,3.72,3.72,3.72s3.72-1.66,3.72-3.72-1.66-3.72-3.72-3.72h0c-2.05,0-3.71,1.67-3.72,3.72ZM118.4,21.69c-1.15.03-2.11-.88-2.14-2.02-.03-1.15.88-2.11,2.02-2.14.04,0,.08,0,.11,0,12.8,0,23.17,10.39,23.17,23.19,0,.61-.02,1.22-.07,1.82-.09,1.14-1.09,2-2.23,1.91-1.14-.09-2-1.09-1.91-2.23.84-10.46-6.97-19.63-17.43-20.46-.51-.04-1.01-.06-1.52-.06ZM85.74,82.05c1.3-8.11,8.84-13.7,16.98-12.6.68-10.77,9.97-18.96,20.74-18.27,7.9.5,14.71,5.71,17.27,13.2,4.69-.35,9.28,1.51,12.4,5.04,6.06-.69,11.93,2.32,14.9,7.65,8.02-7.21,8.69-19.56,1.48-27.58-5.18-5.76-13.28-7.92-20.64-5.5-1.06.44-2.27-.06-2.71-1.12-.13-.31-.18-.64-.15-.97,1.17-14.82-9.89-27.79-24.71-28.96-13.24-1.05-25.27,7.71-28.32,20.64h0c-.25,1.09-1.33,1.79-2.43,1.56-7.42-1.51-15.05,1.4-19.57,7.47h0c-.48.64-1.28.95-2.07.79-10.57-2.17-20.89,4.63-23.06,15.2-2.17,10.57,4.63,20.89,15.2,23.06,1.31.27,2.65.4,3.99.4h20.71ZM100.65,95.34c-6.04,0-10.94-4.9-10.94-10.94,0-6.04,4.9-10.94,10.94-10.94,1.14,0,2.28.18,3.37.53,1.06.44,2.27-.07,2.71-1.13.13-.3.18-.63.15-.96-.68-8.47,5.64-15.89,14.11-16.57,7.58-.61,14.46,4.41,16.21,11.81h0c.26,1.1,1.34,1.79,2.44,1.56,4.16-.84,8.42.79,10.96,4.19h0c.48.64,1.28.95,2.07.79,5.92-1.2,11.7,2.64,12.89,8.56,1.2,5.92-2.64,11.7-8.56,12.89-.71.14-1.44.22-2.16.22h-54.2ZM125.76,129.83c.97-.97.96-2.54,0-3.5-.97-.97-2.54-.96-3.5,0-.96.97-.96,2.53,0,3.5.97.97,2.54.97,3.51,0,0,0,0,0,0,0ZM111.76,141.12c.97-.97.96-2.54,0-3.5-.97-.97-2.54-.96-3.5,0-.96.97-.96,2.53,0,3.5.97.97,2.54.97,3.51,0,0,0,0,0,0,0ZM93.53,128.07c0,1.37,1.11,2.48,2.48,2.48s2.48-1.11,2.48-2.48c0-1.37-1.11-2.48-2.48-2.48-1.37,0-2.47,1.11-2.48,2.48ZM64.03,123.42c0,2.05,1.66,3.72,3.72,3.72,2.05,0,3.72-1.66,3.72-3.72,0-2.05-1.66-3.72-3.72-3.72h0c-2.05,0-3.72,1.67-3.72,3.72ZM75.35,121.34h4.58v-35.13h-14.91c-13.08,0-23.68-10.59-23.69-23.67,0-13.08,10.59-23.68,23.67-23.69,1.15,0,2.3.08,3.43.25,5.13-6.16,13.03-9.3,20.99-8.34,4.97-16.43,22.31-25.72,38.74-20.75,12.96,3.92,21.89,15.78,22.08,29.32,12.81-2.61,25.32,5.65,27.94,18.47,1.79,8.79-1.53,17.84-8.6,23.37,1.79,8.13-3.35,16.18-11.48,17.97-1.07.24-2.16.35-3.26.35h0s-14.77,0-14.77,0v21.84h4.58c1.15-4.2,5.48-6.67,9.68-5.52s6.67,5.48,5.52,9.68c-1.15,4.2-5.48,6.67-9.68,5.52-2.69-.74-4.78-2.83-5.52-5.52h-6.66c-1.15,0-2.08-.93-2.08-2.08v-23.91h-9.83v22.27c3.48,1.15,5.37,4.9,4.22,8.39-1.15,3.48-4.9,5.37-8.39,4.22-3.48-1.15-5.37-4.9-4.22-8.39.66-2,2.23-3.56,4.22-4.22v-22.27h-9.83v33.56c3.48,1.15,5.37,4.9,4.22,8.39-1.15,3.48-4.9,5.37-8.39,4.22-3.48-1.15-5.37-4.9-4.22-8.39.66-2,2.23-3.57,4.22-4.22v-33.56h-7.27c-.86,0-1.72-.07-2.56-.22v22.48c3.48,1.15,5.37,4.9,4.22,8.39-1.15,3.48-4.9,5.37-8.39,4.22-3.48-1.15-5.37-4.9-4.22-8.39.66-2,2.23-3.57,4.22-4.22v-23.84c-4.55-2.27-7.66-6.67-8.26-11.71h-1.57v37.21c0,1.15-.93,2.08-2.08,2.08h-6.66c-1.15,4.2-5.48,6.67-9.68,5.52-4.2-1.15-6.67-5.48-5.52-9.68s5.48-6.67,9.68-5.52c2.69.74,4.78,2.83,5.52,5.52ZM145.34,91.41h2.24c1.15,0,2.08-.93,2.08-2.08s-.93-2.08-2.08-2.08h-2.24c-1.15,0-2.08.93-2.08,2.08s.93,2.08,2.08,2.08ZM112.24,91.41h27.73c1.15,0,2.08-.93,2.08-2.08s-.93-2.08-2.08-2.08h-27.73c-1.15,0-2.08.93-2.08,2.08s.93,2.08,2.08,2.08h0Z"/>
</svg>