<?xml version="1.0" encoding="UTF-8"?>
<svg id="Layer_1" data-name="Layer 1" xmlns="http://www.w3.org/2000/svg" version="1.1" viewBox="0 0 220 150">
  <defs>
    <style>
      .cls-1 {
        fill: #000;
        fill-rule: evenodd;
        stroke-width: 0px;
      }
    </style>
  </defs>
  <path class="cls-1" d="M150.37,54.89l3.76-3.4c1.58-1.36,1.76-3.74.41-5.32-.15-.18-.32-.34-.5-.49h0l-.04-.04c-.94-.78-2.13-1.2-3.36-1.19-1.27-.02-2.5.43-3.46,1.26l-3.76,3.4c-1.58,1.36-1.77,3.74-.41,5.32.15.18.32.34.5.49h0l.04.04c.94.78,2.13,1.2,3.36,1.19,1.27.02,2.5-.43,3.46-1.26h0ZM150.56,73.45l3.76-3.4c1.58-1.36,1.76-3.74.41-5.32-.15-.18-.32-.34-.5-.49h0l-.04-.04c-.94-.78-2.13-1.2-3.36-1.19-1.27-.02-2.5.43-3.46,1.26l-3.76,3.4c-1.58,1.36-1.77,3.74-.41,5.32.15.18.32.34.5.49h0l.04.04c.94.78,2.13,1.2,3.36,1.19,1.27.02,2.5-.43,3.46-1.27ZM150.11,90.98c.67-.61,3.38-3,3.8-3.46,1.28-1.38,1.19-3.53-.18-4.81-.06-.06-.13-.11-.19-.17h0l-.04-.03c-.86-.71-1.94-1.09-3.06-1.08-1.16-.02-2.28.39-3.15,1.15-.67.61-3.38,3-3.81,3.47-1.28,1.38-1.19,3.54.19,4.81.06.06.12.11.19.16h0l.03.04c.86.71,1.94,1.09,3.06,1.08,1.16.02,2.28-.39,3.15-1.15h0ZM87.98,133.08l10.38-9.38-23.46-21.2-10.38,9.38,23.46,21.21ZM126.63,111.7c-7.26,5.45-15.82,8.91-24.83,10.04l-25.24-22.81c-4.61-17.1-.13-28.68,5.38-42.92,1.32-3.4,2.69-6.95,4-10.7,3.87-.61,7.31.38,8.24,4.53.34,1.77.33,3.59-.03,5.36-1.34,2.71-2.31,5.59-2.88,8.55-.41,2.34-.55,4.71-.42,7.08,0,.16.03.32.08.47v32.78c.02,4.19,3.41,7.58,7.6,7.6h28.08ZM150.38,26.61v11.15l4.69-4.24c2.64-2.38,1.16-6.46-2.7-6.99-.66-.09-1.33-.06-1.99.08ZM90.94,41.72v-21.62c.01-4.19,3.41-7.59,7.6-7.61h44.24c2.02,0,3.95.81,5.37,2.24h0c1.43,1.42,2.23,3.35,2.23,5.37v2.68c4.96-.65,9.8,2.83,9.8,7.86-.02,2.17-.95,4.24-2.58,5.68l-5.06,4.57c1.55.33,3,1.06,4.18,2.12h0c3.1,2.77,3.37,7.54.6,10.64-.2.23-.42.44-.64.64l-3.76,3.4c-.74.67-1.59,1.2-2.51,1.57.14,0,.29,0,.43,0,2.14,0,4.2.75,5.84,2.13.08.06.16.12.23.19h0c3.1,2.77,3.37,7.54.6,10.64-.2.23-.42.44-.64.64l-3.76,3.4c-.65.59-1.38,1.07-2.18,1.43,1.87.09,3.65.79,5.08,2,.08.06.16.12.23.19h0c2.95,2.64,3.2,7.18.56,10.13-.19.21-.39.41-.61.6l-3.53,3.19c-.67.6-1.43,1.09-2.26,1.44v8.88c-.02,4.19-3.41,7.58-7.6,7.6h-10c-4.56,3.84-9.61,7.04-15.04,9.51-4.99,2.29-10.33,3.75-15.79,4.32l-12.71,11.48c-.72.65-1.82.65-2.53,0l-26.26-23.73c-.78-.69-.85-1.89-.15-2.66.04-.05.09-.1.14-.14l12.33-11.14c-4.68-17.96-.04-29.96,5.66-44.68,1.4-3.62,2.87-7.42,4.3-11.59.22-.66.79-1.14,1.48-1.26,2.21-.54,4.52-.57,6.74-.07h0ZM146.59,98.96v5.13c0,2.1-1.71,3.81-3.81,3.81h-44.24c-2.1,0-3.81-1.71-3.81-3.81v-5.13h51.86ZM118.33,105.14h4.65c1.05-.03,1.87-.9,1.84-1.95-.03-1.01-.84-1.82-1.84-1.84h-4.65c-1.05.03-1.87.9-1.84,1.95.03,1.01.84,1.82,1.84,1.84ZM114.52,16.29c1.04,3.39,4.63,5.3,8.02,4.26,2.04-.63,3.63-2.22,4.26-4.26h-12.28ZM130.69,16.29h12.08c1.01,0,1.98.4,2.69,1.12h0c.71.72,1.11,1.68,1.11,2.69v21.51c-.7.35-1.35.79-1.93,1.31l-3.76,3.4c-3.12,2.75-3.43,7.51-.68,10.64.2.23.41.44.64.64h0c.07.07.15.13.23.19,1.55,1.31,3.49,2.06,5.51,2.12v.35c-.63.33-1.22.74-1.75,1.22l-3.76,3.4c-3.12,2.75-3.43,7.51-.68,10.64.2.23.41.44.64.64h0c.07.07.15.13.23.19,1.5,1.28,3.37,2.02,5.33,2.13v.07c-.67.33-1.28.75-1.83,1.24l-3.52,3.18c-2.97,2.62-3.27,7.15-.65,10.12.19.21.39.42.6.61h0c.68.61,1.44,1.11,2.27,1.48h-48.73v-28.87c.06-.61.15-1.23.27-1.87.53-2.72,1.43-5.36,2.68-7.83h0c.07-.15.13-.31.16-.48.86-4.69.4-9.58-3.1-12.52v-23.5c0-2.1,1.71-3.81,3.81-3.81h12.08c1.05,5.54,6.39,9.18,11.94,8.13,4.13-.78,7.35-4.01,8.13-8.13h0Z"/>
</svg>