<?xml version="1.0" encoding="UTF-8"?>
<svg id="Layer_1" data-name="Layer 1" xmlns="http://www.w3.org/2000/svg" version="1.1" viewBox="0 0 220 150">
  <defs>
    <style>
      .cls-1 {
        fill: #4a90ce;
        fill-rule: evenodd;
        stroke-width: 0px;
      }
    </style>
  </defs>
  <path class="cls-1" d="M180.72,132.76c-2.26,2.26-5.33,3.52-8.53,3.53H47.8c-6.64,0-12.04-5.36-12.08-12.01V26.6c.05-6.64,5.44-12,12.08-12.01h124.39c6.64,0,12.04,5.36,12.08,12.01v97.68c0,3.19-1.28,6.24-3.56,8.48h0ZM179.78,38.63v-12.03c-.03-4.16-3.42-7.52-7.58-7.5H47.8c-4.16-.01-7.55,3.34-7.58,7.5v12.03h139.55ZM85.92,27.24h-5.01c-1.24-.03-2.28.95-2.31,2.19-.03,1.24.95,2.28,2.19,2.31.04,0,.08,0,.12,0h5.01c1.24.03,2.28-.95,2.31-2.19s-.95-2.28-2.19-2.31c-.04,0-.08,0-.12,0ZM167.47,27.24h-70.59c-1.24-.03-2.28.95-2.31,2.19s.95,2.28,2.19,2.31c.04,0,.08,0,.12,0h70.59c1.24-.03,2.22-1.07,2.19-2.31-.03-1.2-.99-2.16-2.19-2.19h0ZM69.71,27.24h-5.01c-1.24-.03-2.28.95-2.31,2.19-.03,1.24.95,2.28,2.19,2.31.04,0,.08,0,.12,0h5.01c1.24-.03,2.22-1.07,2.19-2.31-.03-1.2-.99-2.16-2.19-2.19h0ZM53.5,27.24h-5.01c-1.24-.03-2.28.95-2.31,2.19s.95,2.28,2.19,2.31c.04,0,.08,0,.12,0h5.01c1.24-.03,2.22-1.07,2.19-2.31-.03-1.2-.99-2.16-2.19-2.19h0ZM115.07,54.92h-63.24v35.32h63.24v-35.32h0ZM49.59,50.43c-1.24,0-2.25,1.01-2.25,2.25v39.82c0,1.24,1,2.25,2.25,2.25h67.75c1.24,0,2.25-1.01,2.24-2.25h0v-39.82c0-1.24-1.01-2.25-2.25-2.25H49.59ZM84.52,59.96l-6.46,24.1c-.36,1.19.31,2.44,1.5,2.8,1.19.36,2.44-.31,2.8-1.5.01-.05.03-.09.04-.14l6.45-24.09c.36-1.19-.31-2.44-1.5-2.8-1.19-.36-2.44.31-2.8,1.5-.01.05-.03.09-.04.14h0ZM72.92,79.02l-6.44-6.44,6.44-6.44c.86-.9.83-2.32-.07-3.18-.87-.83-2.24-.83-3.11,0l-8.02,8.02c-.88.88-.88,2.3,0,3.18l8.02,8.04c.88.88,2.3.88,3.18,0s.88-2.3,0-3.18h0ZM97.17,82.21l8.03-8.03c.88-.88.88-2.3,0-3.18l-8.03-8.02c-.89-.87-2.31-.86-3.18.02-.86.87-.86,2.28,0,3.15l6.44,6.44-6.44,6.44c-.84.92-.77,2.34.15,3.18.86.78,2.18.78,3.04,0ZM139.23,66.72h30.93c1.24-.03,2.22-1.07,2.19-2.31-.03-1.2-.99-2.16-2.19-2.19h-30.93c-1.24.03-2.22,1.07-2.19,2.31.03,1.2.99,2.16,2.19,2.19ZM129.05,66.72h2.88c1.24-.03,2.22-1.07,2.19-2.31-.03-1.2-.99-2.16-2.19-2.19h-2.88c-1.24-.03-2.28.95-2.31,2.19s.95,2.28,2.19,2.31c.04,0,.08,0,.12,0ZM139.23,77.69h30.93c1.24,0,2.25-1.01,2.25-2.25s-1.01-2.25-2.25-2.25h-30.93c-1.24,0-2.25,1.01-2.25,2.25s1.01,2.25,2.25,2.25ZM129.05,77.69h2.88c1.24,0,2.25-1.01,2.25-2.25s-1.01-2.25-2.25-2.25h-2.88c-1.24,0-2.25,1.01-2.25,2.25s1.01,2.25,2.25,2.25h0ZM139.23,88.67h30.93c1.24-.03,2.22-1.07,2.19-2.31-.03-1.2-.99-2.16-2.19-2.19h-30.93c-1.24.03-2.22,1.07-2.19,2.31.03,1.2.99,2.16,2.19,2.19ZM129.05,88.67h2.88c1.24-.03,2.22-1.07,2.19-2.31-.03-1.2-.99-2.16-2.19-2.19h-2.88c-1.24-.03-2.28.95-2.31,2.19s.95,2.28,2.19,2.31c.04,0,.08,0,.12,0ZM139.23,99.64h30.93c1.24-.03,2.22-1.07,2.19-2.31-.03-1.2-.99-2.16-2.19-2.19h-30.93c-1.24.03-2.22,1.07-2.19,2.31.03,1.2.99,2.16,2.19,2.19ZM129.05,99.64h2.88c1.24-.03,2.22-1.07,2.19-2.31-.03-1.2-.99-2.16-2.19-2.19h-2.88c-1.24-.03-2.28.95-2.31,2.19-.03,1.24.95,2.28,2.19,2.31.04,0,.08,0,.12,0ZM121.73,110.61h48.42c1.24-.03,2.22-1.07,2.19-2.31-.03-1.2-.99-2.16-2.19-2.19h-48.42c-1.24-.03-2.28.95-2.31,2.19-.03,1.24.95,2.28,2.19,2.31.04,0,.08,0,.12,0ZM59.76,110.61h52.82c1.24-.03,2.22-1.07,2.19-2.31-.03-1.2-.99-2.16-2.19-2.19h-52.82c-1.24-.03-2.28.95-2.31,2.19-.03,1.24.95,2.28,2.19,2.31.04,0,.08,0,.12,0ZM49.58,110.61h2.88c1.24.03,2.28-.95,2.31-2.19.03-1.24-.95-2.28-2.19-2.31-.04,0-.08,0-.12,0h-2.88c-1.24-.03-2.28.95-2.31,2.19-.03,1.24.95,2.28,2.19,2.31.04,0,.08,0,.12,0h0ZM82.57,121.59h87.58c1.24,0,2.25-1.01,2.25-2.25,0-1.24-1.01-2.25-2.25-2.25h-87.58c-1.24,0-2.25,1.01-2.25,2.25,0,1.24,1.01,2.25,2.25,2.25ZM59.76,121.59h15.58c1.24,0,2.25-1.01,2.25-2.25,0-1.24-1.01-2.25-2.25-2.25h-15.58c-1.24,0-2.25,1-2.25,2.25,0,1.24,1,2.25,2.25,2.25h0ZM49.58,121.59h2.88c1.24,0,2.25-1.01,2.25-2.25,0-1.24-1.01-2.25-2.25-2.25h-2.88c-1.24,0-2.25,1-2.25,2.25,0,1.24,1,2.25,2.25,2.25h0,0ZM172.2,131.78c4.16.01,7.55-3.34,7.58-7.5V43.14H40.22v81.14c.03,4.16,3.42,7.52,7.58,7.5h124.39Z"/>
</svg>